<?xml version="1.0" encoding="UTF-8" standalone="no"?>
<svg
   width="50"
   height="50"
   viewBox="0 0 50 50"
   fill="none"
   version="1.1"
   id="svg2"
   sodipodi:docname="favicon.svg"
   xml:space="preserve"
   inkscape:version="1.3.2 (091e20e, 2023-11-25, custom)"
   xmlns:inkscape="http://www.inkscape.org/namespaces/inkscape"
   xmlns:sodipodi="http://sodipodi.sourceforge.net/DTD/sodipodi-0.dtd"
   xmlns="http://www.w3.org/2000/svg"
   xmlns:svg="http://www.w3.org/2000/svg"><defs
     id="defs2"><clipPath
       clipPathUnits="userSpaceOnUse"
       id="clipPath53"><path
         id="path54"
         style="fill:#ff0000;fill-opacity:1;fill-rule:nonzero;stroke:none"
         d="M -5.8769531,-6.9335938 V 66.142578 H 95.839844 V 34.78125 c -1.12145,2.500915 -3.651447,4.959854 -7.833985,6.730469 -0.647653,6.091315 -4.09334,9.333117 -7.740234,9.511719 -3.828536,5.562888 -10.764641,4.837116 -13.496094,-1.720704 -0.0082,0.02288 -0.01723,0.04547 -0.02539,0.06836 0.04532,0.11867 0.08432,0.223059 0.134765,0.353515 2.109243,5.454166 0.537273,5.826045 -2.330078,4.640625 C 58.640946,64.451699 47.929529,61.075982 48.738281,50.470703 48.659015,50.255018 48.577248,50.040691 48.5,49.824219 c -0.296588,-0.774008 -0.54983,-1.562871 -0.78125,-2.357422 -1.139083,0.247829 -2.277517,0.498528 -3.421875,0.722656 -2.472234,0.478005 -4.980318,0.690186 -7.490234,0.855469 2.431076,7.09937 -4.866004,13.122258 -15.208985,7.375 C 13.767535,61.190257 7.5400768,58.964066 5.9179688,54.484375 3.7620541,51.188723 4.5174344,45.862026 10.15625,41.121094 c -0.4497934,-2.740436 0.07397,-5.17956 1.185547,-7.103516 -0.393412,-2.040026 0.08091,-3.996082 1.296875,-5.519531 0.02714,-0.09794 0.0408,-0.200558 0.07227,-0.296875 -2.535198,-5.407988 0.907838,-10.73657 7.5625,-10.605469 2.227041,0.04387 4.812362,0.699206 7.652343,2.167969 0.436985,0.225996 0.849179,0.473551 1.257813,0.740234 0.28476,0.09803 0.530432,0.184646 0.300781,0.115235 0.4462,0.152979 0.892303,0.306483 1.34375,0.443359 0.775461,0.262681 1.569069,0.473914 2.320313,0.806641 0.951416,0.393502 1.924781,0.748857 2.808593,1.287109 0.617895,0.359241 1.229452,0.729035 1.841797,1.097656 0.141023,0.09188 0.28646,0.17737 0.433594,0.259766 0.421137,0.04276 0.84637,0.09052 1.287109,0.160156 0.83069,0.131243 1.65763,0.278932 2.480469,0.453125 0.415029,0.07305 0.8305,0.154823 1.25,0.189453 -0.164891,0.0157 -0.0827,0.0055 0.246094,0.0059 0.286546,3.25e-4 0.572909,0.0012 0.859375,0.002 1.210312,-0.440513 2.620259,-0.665548 4.207031,-0.605469 0.514951,0.0195 1.04881,0.07114 1.599609,0.152344 0.139982,-0.377125 0.279396,-0.755004 0.427735,-1.128906 0.0341,-0.07251 0.03871,-0.169712 0.05273,-0.257813 v -1.001953 c 0,-8.526107 4.306955,-12.7890626 8.613281,-12.7890626 1.630776,0 3.259252,0.6152216 4.65625,1.8378906 1.954357,-1.530792 3.968299,-2.235894 5.798829,-2.1933594 1.864239,0.043319 3.533109,0.8322464 4.751953,2.2109374 1.414451,-1.330398 3.054446,-2.028435 4.693359,-2.095703 0.14269,-0.00586 0.285295,-0.00746 0.427734,-0.00391 4.415894,0.1102802 8.641903,4.738333 8.048828,13.49414 -0.03659,0.540131 -0.05768,1.080343 -0.07617,1.621094 4.138911,0.01589 7.031655,1.766284 8.283203,4.222656 V -6.9335938 Z M 28.712891,20.341797 c 0.01399,0.0049 0.06945,0.02353 0.0918,0.03125 -0.01171,-0.0046 -0.02346,-0.0091 -0.03516,-0.01367 -0.03645,-0.01232 -0.07532,-0.02414 -0.05664,-0.01758 z m 21.929687,3.414062 c -0.0013,0.0065 -0.0028,0.01301 -0.0039,0.01953 -0.0036,0.02112 -0.004,0.04311 -0.0059,0.06445 0.0076,-0.04689 0.0055,-0.0277 0.0098,-0.05469 z m 0,0.128907 c -0.0017,0.02054 -0.0022,0.0198 -0.0039,0.04297 -5.33e-4,0.0069 0.0022,-0.0082 0.0039,-0.01953 z" /></clipPath><clipPath
       clipPathUnits="userSpaceOnUse"
       id="clipPath58"><path
         id="path58"
         style="fill:#ff0000;fill-opacity:1;fill-rule:nonzero;stroke:none;stroke-width:35.0976"
         d="m 1263.4064,1617.4843 v 125.0351 h 14.1898 l 10.3511,-4.113 c 8.4768,-2.7864 17.0546,-5.1767 25.5691,-7.8147 v -113.1074 z" /></clipPath><clipPath
       clipPathUnits="userSpaceOnUse"
       id="clipPath59"><path
         id="path59"
         style="fill:#ff0000;fill-opacity:1;fill-rule:nonzero;stroke:none;stroke-width:35.0976"
         d="m 1358.4852,1617.3472 v 99.6716 c 42.251,-11.8337 85.0969,-21.3329 127.9828,-30.7104 v -68.9612 z" /></clipPath><clipPath
       clipPathUnits="userSpaceOnUse"
       id="clipPath60"><path
         id="path60"
         style="fill:#ff0000;fill-opacity:1;fill-rule:nonzero;stroke:none;stroke-width:35.0976"
         d="m 1521.497,1617.4843 v 61.1465 c 14.0405,-2.9106 27.9421,-6.3493 42.0212,-9.1171 27.6125,-6.0133 55.3693,-11.3418 83.014,-17.206 v -34.8234 z" /></clipPath><clipPath
       clipPathUnits="userSpaceOnUse"
       id="clipPath61"><path
         id="path61"
         style="fill:#ff0000;fill-opacity:1;fill-rule:nonzero;stroke:none;stroke-width:35.0976"
         d="m 1786.5112,1617.3472 v 5.8953 c 9.5099,-1.9451 19.0046,-3.9617 28.5168,-5.8953 z" /></clipPath><clipPath
       clipPathUnits="userSpaceOnUse"
       id="clipPath64"><path
         id="path65"
         style="fill:#ff0000;fill-opacity:1;fill-rule:nonzero;stroke:none;stroke-width:35.0976"
         d="m 2419.5016,1151.1388 v 298.9465 c 4.3536,-4.0581 8.5709,-8.2423 12.9559,-12.2705 102.7305,-97.4332 208.3244,-191.6816 313.2734,-286.676 z" /></clipPath><clipPath
       clipPathUnits="userSpaceOnUse"
       id="clipPath67"><path
         id="path68"
         style="fill:#ff0000;fill-opacity:1;fill-rule:nonzero;stroke:none;stroke-width:35.0976"
         d="m 1980.5076,1161.4899 v 377.1619 h 198.5207 c 22.3579,-5.4532 44.7264,-10.9466 66.9733,-16.8633 52.3639,-14.2182 104.7799,-30.3756 153.6205,-54.2915 v -306.0071 z" /></clipPath><clipPath
       clipPathUnits="userSpaceOnUse"
       id="clipPath69"><path
         id="path69"
         style="fill:#ff0000;fill-opacity:1;fill-rule:nonzero;stroke:none;stroke-width:35.0976"
         d="m 2124.6682,1614.2624 v 130.1764 h 20.2222 c 15.2339,-20.0082 31.6114,-40.1309 49.2189,-60.324 l 21.7303,-24.9522 c 12.6713,-14.0915 25.8925,-27.6193 38.7308,-41.5412 v -3.3589 z" /></clipPath><clipPath
       clipPathUnits="userSpaceOnUse"
       id="clipPath132"><path
         id="path133"
         style="fill:#ff0000;fill-opacity:1;fill-rule:nonzero;stroke:none;stroke-width:35.0976"
         d="M -0.51792802,122.47803 V 1744.5759 H 499.69119 c 3.95347,-7.1865 8.09029,-14.2773 11.92769,-21.5247 12.50609,-24.761 25.0152,-49.4164 36.67424,-74.5823 3.65655,-8.1357 7.70427,-16.0938 11.58494,-24.1296 1.19886,-3.6732 2.50534,-7.2714 3.8388,-10.8995 1.16538,-9.972 9.31786,-35.736 10.21394,-39.0734 5.66409,-23.7375 16.02795,-57.2571 26.1861,-87.5384 -55.81406,-246.9642 92.81307,-442.1227 327.94305,-453.5265 71.42814,-41.72691 144.89855,-60.77388 214.28715,-59.29578 1.8956,0.0421 3.7324,0.34045 5.6211,0.41134 15.2478,-33.75682 37.987,-54.48492 71.6348,-56.00532 44.6569,-2.01776 108.3162,29.36791 198.1779,107.41776 21.4033,18.59 42.2132,37.705 62.9974,56.965 0.5195,0.4918 1.1231,0.8831 1.645,1.371 64.1824,11.5255 132.7997,33.3848 204.9644,67.6588 55.6267,-9.7884 116.2578,-15.2851 182.3429,-15.2866 56.6935,0 113.4496,2.0999 169.6612,9.2543 23.5205,-23.5886 45.893,-48.3389 68.3443,-72.9372 61.8033,-69.8013 122.5692,-140.69323 190.9117,-204.3475 121.1648,-115.98948 246.4846,-228.82063 384.9766,-323.96716 103.2733,-69.76338 208.8207,-139.89037 325.9551,-184.2623 148.4083,-56.21881 275.2677,-79.57838 378.8071,-77.32436 119.3332,2.59778 207.375,39.48638 262.1351,99.1918 V 122.47803 Z M 564.05961,1615.085 c -1.19139,1.8261 -1.64007,3.2377 -2.67345,5.9639 0.67071,-1.4239 1.41064,-2.8148 2.05651,-4.2501 0.25059,-0.5566 0.95037,-2.2248 0.61694,-1.7138 z m 3086.46229,100.083 c -9.8043,9.7826 -19.4654,19.6937 -29.3394,29.4079 h 29.3394 z" /></clipPath></defs><sodipodi:namedview
     id="namedview2"
     pagecolor="#505050"
     bordercolor="#eeeeee"
     borderopacity="1"
     inkscape:showpageshadow="0"
     inkscape:pageopacity="0"
     inkscape:pagecheckerboard="0"
     inkscape:deskcolor="#505050"
     inkscape:zoom="4.105"
     inkscape:cx="33.739342"
     inkscape:cy="46.650426"
     inkscape:window-width="1920"
     inkscape:window-height="1017"
     inkscape:window-x="-8"
     inkscape:window-y="-8"
     inkscape:window-maximized="1"
     inkscape:current-layer="svg2" /><g
     style="clip-rule:evenodd;fill-rule:evenodd;image-rendering:optimizeQuality;shape-rendering:geometricPrecision;text-rendering:geometricPrecision;fill:#000000"
     id="g55"
     transform="matrix(0.02849199,0,0,0.02849199,-6.4149307,-3.9955022)"
     clip-path="url(#clipPath132)"><g
       id="g1"
       style="fill:#000000"><path
         style="opacity:0.796;fill:#000000"
         fill="#fefffe"
         d="m 70.5,122.5 c 1.3333,0 2.6667,0 4,0 0,11.667 0,23.333 0,35 -1.3333,0 -2.6667,0 -4,0 0,-11.667 0,-23.333 0,-35 z"
         id="path1-7" /></g><g
       id="g2"
       style="fill:#000000"><path
         style="opacity:0.797;fill:#000000"
         fill="#fefffe"
         d="m 3580.5,122.5 c 1.33,0 2.67,0 4,0 0,11.667 0,23.333 0,35 -1.33,0 -2.67,0 -4,0 0,-11.667 0,-23.333 0,-35 z"
         id="path2-2" /></g><g
       id="g3"
       style="fill:#000000"><path
         style="opacity:0.64;fill:#000000"
         fill="#fefffe"
         d="m -0.5,193.5 c 11.6667,0 23.3333,0 35,0 0,1.667 0,3.333 0,5 -11.6667,0 -23.3333,0 -35,0 0,-1.667 0,-3.333 0,-5 z"
         id="path3" /></g><g
       id="g4"
       style="fill:#000000"><path
         style="opacity:0.641;fill:#000000"
         fill="#fefffe"
         d="m 3650.5,193.5 c 0,1.667 0,3.333 0,5 -11,0 -22,0 -33,0 0,-1.667 0,-3.333 0,-5 11,0 22,0 33,0 z"
         id="path4" /></g><g
       id="g5"
       style="fill:#000000"><path
         style="opacity:0.983;fill:#000000"
         fill="#fefffe"
         d="m 744.5,577.5 c 44.757,-0.677 89.423,0.989 134,5 19.964,2.535 39.964,4.702 60,6.5 33.673,5.85 67.34,12.183 101,19 178.24,42.628 345.57,111.461 502,206.5 16.31,8.821 32.31,18.154 48,28 68.23,43.921 133.9,91.254 197,142 51.14,42.8 100.14,88.13 147,136 11.99,13.32 23.99,26.66 36,40 6.97,1 13.97,1.33 21,1 -4.96,30.11 -9.96,60.11 -15,90 -55.67,0 -111.33,0 -167,0 -2.55,18.75 -5.88,37.41 -10,56 47.33,-0.17 94.67,0 142,0.5 0.6,1.06 0.93,2.23 1,3.5 -5.32,24.93 -10.32,49.93 -15,75 -0.99,3.95 -1.32,7.95 -1,12 -47.33,0 -94.67,0 -142,0 -3.33,17.31 -6.66,34.64 -10,52 56.67,0 113.33,0 170,0 -5.67,29.19 -11,58.53 -16,88 -92,0 -184,0 -276,0 21.45,-125.69 43.45,-251.36 66,-377 29.34,0.17 58.67,0 88,-0.5 -143.28,-119.01 -302.94,-210.847 -479,-275.5 -75.69,-27.255 -153.03,-48.255 -232,-63 -37.92,-5.932 -75.92,-10.265 -114,-13 -45.424,-1.943 -90.757,-0.776 -136,3.5 -15.145,2.508 -30.478,4.841 -46,7 -40.381,8.653 -79.047,22.153 -116,40.5 -102.802,57.94 -146.136,145.61 -130,263 4.044,20.17 8.711,40.17 14,60 21.07,58.44 50.07,112.44 87,162 3.063,4.07 5.73,8.4 8,13 1,1 2,2 3,3 0.586,-0.21 1.086,-0.54 1.5,-1 10.254,-62.48 21.421,-124.81 33.5,-187 0.523,-3.99 0.856,-7.99 1,-12 91,0 182,0 273,0 -1.976,16.87 -4.309,33.7 -7,50.5 -2.408,12.97 -5.075,25.8 -8,38.5 -55,0.67 -110,1.33 -165,2 -5.092,23.21 -9.759,46.54 -14,70 47.667,0 95.333,0 143,0 -5.854,30.03 -11.52,60.03 -17,90 -47.478,0.34 -94.812,1.34 -142,3 -6.733,41.03 -14.067,82.03 -22,123 -35.667,0 -71.333,0 -107,0 0.002,-2.33 -0.831,-4.33 -2.5,-6 -72.881,-71.19 -137.215,-149.19 -193,-234 -7.17,-13.01 -14.836,-25.68 -23,-38 -1.786,-3.52 -3.286,-7.18 -4.5,-11 -44.227,-74.57 -73.56,-154.9 -88,-241 -10.849,-65.553 -6.016,-129.886 14.5,-193 6.176,-16.019 13.176,-31.686 21,-47 7.385,-10.88 14.552,-21.88 21.5,-33 6.116,-6.271 11.616,-12.937 16.5,-20 40.249,-42.709 87.749,-75.042 142.5,-97 65.597,-24.727 133.597,-37.894 204,-39.5 0.556,-0.383 0.889,-0.883 1,-1.5 z m 79,43 c 2.897,-0.375 5.563,0.125 8,1.5 51.857,0.361 103.524,4.528 155,12.5 78.47,13.683 155.47,33.183 231,58.5 134.79,47.064 262.79,108.064 384,183 132.23,80.055 252.89,175.05 362,285 -15,0.5 -30,0.67 -45,0.5 0.26,-1.48 -0.07,-2.81 -1,-4 -6.44,-5.76 -12.1,-12.1 -17,-19 -22.31,-21.64 -44.31,-43.64 -66,-66 -1.61,-0.82 -3.27,-1.49 -5,-2 -5.59,-7.43 -12.26,-13.59 -20,-18.5 -7.43,-8.2 -15.43,-15.7 -24,-22.5 -48.29,-39.892 -98.46,-77.226 -150.5,-112 -8.32,-4.993 -16.65,-9.993 -25,-15 -1.37,0.344 -2.53,1.011 -3.5,2 -3.25,6.663 -6.58,13.163 -10,19.5 0.93,2.263 2.26,4.263 4,6 5.38,3.359 11.05,6.192 17,8.5 0.33,0.667 0.67,1.333 1,2 6,3.333 12,6.667 18,10 0.48,0.978 1.14,1.811 2,2.5 7.45,2.891 14.11,7.058 20,12.5 18.02,11.343 36.02,22.676 54,34 3.11,2.41 6.11,5.08 9,8 11.78,6.76 22.78,14.76 33,24 9.1,4.42 17.1,10.42 24,18 6.4,3.27 12.07,7.6 17,13 10.22,6.87 19.88,14.54 29,23 8.58,5.14 16.24,11.47 23,19 5.68,4.35 11.34,8.68 17,13 3.8,5.8 8.8,10.13 15,13 4.63,5.63 9.63,10.97 15,16 1.61,0.82 3.27,1.49 5,2 3.66,4.5 7.66,8.66 12,12.5 -32.67,0.83 -65.34,0.67 -98,-0.5 -57.23,-53.11 -118.23,-100.95 -183,-143.5 -131.64,-85.454 -272.97,-150.121 -424,-194 -29.82,-7.5 -59.65,-14.666 -89.5,-21.5 -38.79,-7.328 -77.63,-13.495 -116.5,-18.5 -60.827,-4.316 -121.661,-4.483 -182.5,-0.5 -53.543,5.847 -105.043,19.347 -154.5,40.5 -32.836,16.41 -62.503,37.243 -89,62.5 -7.515,9.77 -15.181,19.437 -23,29 -8.223,13.276 -15.557,27.109 -22,41.5 -15.151,42.688 -19.985,86.52 -14.5,131.5 4.435,26.41 10.768,52.41 19,78 5.53,12.4 10.53,25.07 15,38 29.788,61.43 67.455,117.43 113,168 0.555,5.68 0.388,11.35 -0.5,17 -5.428,30.59 -11.261,60.93 -17.5,91 -1.813,17.13 -4.48,34.13 -8,51 -79.518,-86.38 -146.184,-181.71 -200,-286 -7.046,-16.27 -14.213,-32.61 -21.5,-49 -15.856,-39.73 -28.356,-80.39 -37.5,-122 -5.216,-31.41 -8.383,-62.91 -9.5,-94.5 1.408,-128.395 56.408,-225.561 165,-291.5 30.503,-16.203 62.169,-29.536 95,-40 47.421,-13.126 95.754,-21.293 145,-24.5 16.667,-0.333 33.333,-0.667 50,-1 0.556,-0.383 0.889,-0.883 1,-1.5 z"
         id="path5" /></g><g
       id="g6"
       style="fill:#000000"><path
         style="opacity:0.994;fill:#000000"
         fill="#fefffe"
         d="m 797.5,659.5 c 39.672,-0.333 79.339,0 119,1 21.034,1.469 42.034,3.302 63,5.5 1.266,0.309 2.433,0.809 3.5,1.5 6.621,14.576 13.788,28.909 21.5,43 1.82,4.318 3.49,8.651 5,13 -15.87,-1.101 -31.87,-2.101 -48,-3 -34.667,-1.333 -69.333,-1.333 -104,0 -9.38,0.627 -18.713,1.627 -28,3 -1.667,-0.333 -3.333,-0.667 -5,-1 -18.103,-19.096 -35.77,-38.429 -53,-58 0.667,-0.667 1.333,-1.333 2,-2 8.375,-0.352 16.375,-1.352 24,-3 z"
         id="path6" /></g><g
       id="g7"
       style="fill:#000000"><path
         style="opacity:0.993;fill:#000000"
         fill="#fefffe"
         d="m 708.5,670.5 c 4.714,-0.327 9.38,0.007 14,1 16.278,17.781 32.778,35.448 49.5,53 1.122,1.92 1.956,3.92 2.5,6 -51.08,9.241 -99.413,25.908 -145,50 -1.333,-0.167 -2.667,-0.333 -4,-0.5 -10.364,-8.838 -21.364,-16.671 -33,-23.5 -2.894,-2.921 -5.894,-5.588 -9,-8 -8.848,-4.837 -17.181,-10.503 -25,-17 -2.667,-2.333 -2.667,-4.667 0,-7 13.585,-6.126 26.918,-12.792 40,-20 17.092,-6.903 34.426,-13.236 52,-19 19.591,-4.985 38.924,-9.985 58,-15 z"
         id="path7" /></g><g
       id="g8"
       style="fill:#000000"><path
         style="opacity:0.992;fill:#000000"
         fill="#fefffe"
         d="m 1041.5,676.5 c 4.71,-0.327 9.38,0.007 14,1 14.88,3.512 29.88,6.345 45,8.5 56.18,13.226 111.51,29.393 166,48.5 1.25,1.501 2.25,3.168 3,5 0.83,9.983 1.33,19.983 1.5,30 1.57,3.133 1.9,6.467 1,10 -1.4,0.616 -2.9,0.949 -4.5,1 -65.17,-21.837 -131.83,-37.837 -200,-48 -8.32,-18.82 -16.99,-37.487 -26,-56 z"
         id="path8" /></g><g
       id="g9"
       style="fill:#000000"><path
         style="opacity:0.991;fill:#000000"
         fill="#fefffe"
         d="m 516.5,752.5 c 6.051,-0.308 10.718,2.026 14,7 3.555,1.222 6.889,2.889 10,5 6.344,6.16 13.344,11.327 21,15.5 9.51,7.339 19.177,14.506 29,21.5 1.333,1 1.333,2 0,3 -6.43,6.437 -13.43,12.103 -21,17 -14.043,13.375 -27.376,27.375 -40,42 -3.573,6.8 -7.907,13.133 -13,19 -4.009,6.672 -8.009,13.339 -12,20 -1.167,0.333 -2.333,0.667 -3.5,1 -18.719,-7.109 -36.886,-15.443 -54.5,-25 -6.568,-1.966 -12.901,-4.299 -19,-7 -0.317,-3.072 0.016,-6.072 1,-9 3.225,-7.45 6.725,-14.783 10.5,-22 7.824,-11.639 15.657,-23.306 23.5,-35 12.574,-14.578 25.907,-28.578 40,-42 1.667,-0.833 3.333,-1.667 5,-2.5 2.615,-3.454 5.615,-6.287 9,-8.5 z"
         id="path9" /></g><g
       id="g10"
       style="fill:#000000"><path
         style="opacity:0.984;fill:#000000"
         fill="#fefffe"
         d="m 1330.5,760.5 c 5.62,0.14 10.95,1.473 16,4 27.82,11.749 55.49,24.083 83,37 40.02,19.673 79.35,40.339 118,62 1.51,1.346 2.85,2.846 4,4.5 -1.8,3.094 -3.46,6.261 -5,9.5 -0.67,0.333 -1.33,0.667 -2,1 -2.31,4.627 -4.31,9.294 -6,14 -2.42,0.308 -4.76,-0.026 -7,-1 -32.01,-16.678 -64.35,-32.678 -97,-48 -16.68,-6.174 -33.01,-13.174 -49,-21 -16.81,-5.729 -33.48,-12.062 -50,-19 -1.51,-3.803 -2.51,-7.803 -3,-12 -0.71,-10.362 -1.38,-20.696 -2,-31 z"
         id="path10" /></g><g
       id="g11"
       style="fill:#000000"><path
         style="opacity:0.993;fill:#000000"
         fill="#fefffe"
         d="m 412.5,908.5 c 2.104,-0.299 4.104,0.034 6,1 18.716,7.858 37.049,16.525 55,26 4.341,0.462 8.341,1.796 12,4 0.989,0.968 1.656,2.135 2,3.5 -7.722,19.863 -13.056,40.363 -16,61.5 -0.879,15.67 -1.879,31.34 -3,47 0.836,11.34 1.336,22.67 1.5,34 -0.725,0.56 -1.558,0.89 -2.5,1 -13.886,-4.04 -27.886,-7.71 -42,-11 -5.644,-1.26 -11.311,-2.26 -17,-3 -11.561,-55.01 -10.227,-109.676 4,-164 z"
         id="path11" /></g><g
       id="g12"
       style="fill:#000000"><path
         style="opacity:0.985;fill:#000000"
         fill="#fefffe"
         d="m 421.5,1121.5 c 18.682,3.77 37.348,7.44 56,11 0.496,5.73 1.496,11.4 3,17 3.584,14.04 7.25,28.04 11,42 6.016,16.69 12.016,33.36 18,50 11.996,26.81 24.663,53.31 38,79.5 15.34,25.68 31.007,51.18 47,76.5 1.333,1 2.667,2 4,3 3.523,5.05 6.523,10.38 9,16 6.487,5.99 11.654,12.99 15.5,21 6,7 12,14 18,21 1.677,3.49 3.511,6.82 5.5,10 -1.478,0.26 -2.811,-0.07 -4,-1 -41.897,-41.61 -80.231,-85.94 -115,-133 -2.363,-5.41 -5.697,-10.07 -10,-14 -7.815,-13.47 -16.315,-26.47 -25.5,-39 -6.129,-13.11 -13.296,-25.61 -21.5,-37.5 -5.821,-12.9 -12.155,-25.57 -19,-38 -5.875,-14.52 -11.875,-29.02 -18,-43.5 -3.659,-10.98 -7.325,-21.98 -11,-33 -0.98,-2.59 -1.313,-5.25 -1,-8 z"
         id="path12" /></g><g
       id="g13"
       style="fill:#000000"><path
         style="opacity:0.995;fill:#000000"
         fill="#fefffe"
         d="m 2647.5,1151.5 c 40.61,-2.28 78.95,5.72 115,24 6.94,5.44 14.28,10.28 22,14.5 5.63,5.16 11.29,10.32 17,15.5 6.32,7.31 12.15,14.97 17.5,23 13.44,25.08 19.94,51.74 19.5,80 -36.01,0.33 -72.01,0 -108,-1 -3.59,-22.6 -14.93,-40.27 -34,-53 -9.2,-5.84 -19.2,-9.51 -30,-11 -25.45,-3.42 -49.45,0.92 -72,13 -24.92,14.25 -43.58,34.25 -56,60 -10.82,27.43 -12.65,55.43 -5.5,84 5.35,16.19 14.51,29.86 27.5,41 5.16,3.08 10.16,6.41 15,10 11.53,4.61 23.53,7.28 36,8 37.79,-1.89 68.46,-17.56 92,-47 3.48,-6.95 7.48,-13.61 12,-20 35.99,-1 71.99,-1.33 108,-1 0.31,2.75 -0.02,5.41 -1,8 -9.82,23.39 -22.82,44.73 -39,64 -8.39,8.39 -16.72,16.72 -25,25 -11,7.83 -22,15.67 -33,23.5 -8.31,3.46 -16.31,7.63 -24,12.5 -5.07,1.37 -9.73,3.53 -14,6.5 -14.29,4.21 -28.63,8.38 -43,12.5 -50.46,11.5 -98.46,5.17 -144,-19 -5.83,-5.08 -12.16,-9.41 -19,-13 -1.96,-2.96 -4.29,-5.63 -7,-8 -3.57,-1.57 -6.57,-3.9 -9,-7 -22.05,-24.61 -36.38,-53.28 -43,-86 -0.31,-11.41 -1.31,-22.74 -3,-34 0.22,-26.42 5.55,-51.75 16,-76 3.76,-9.3 8.1,-18.3 13,-27 6.5,-7.82 12.16,-16.15 17,-25 38.15,-45.43 86.15,-75.43 144,-90 12.91,-2.59 25.57,-4.92 38,-7 z"
         id="path13"
         clip-path="url(#clipPath64)" /></g><g
       id="g14"
       style="fill:#000000"><path
         style="opacity:0.998;fill:#000000"
         fill="#fefffe"
         d="m 1024.5,1161.5 c 35.67,0 71.33,0 107,0 -15.41,91.62 -31.41,183.12 -48,274.5 -0.59,4.82 -0.92,9.65 -1,14.5 48,0 96,0 144,0 -3.94,25.3 -7.77,50.64 -11.5,76 -0.85,3.74 -2.02,7.41 -3.5,11 -84,1 -168,1.33 -252,1 2.94,-20.2 5.94,-40.36 9,-60.5 19.124,-105.45 37.79,-210.95 56,-316.5 z"
         id="path14" /></g><g
       id="g15"
       style="fill:#000000"><path
         style="opacity:0.996;fill:#000000"
         fill="#fefffe"
         d="m 1312.5,1161.5 c 36,0 72,0 108,0 -15.03,82.36 -29.7,164.86 -44,247.5 0.85,22.62 11.52,38.62 32,48 41.88,9.89 72.55,-4.28 92,-42.5 8.72,-38.11 15.88,-76.78 21.5,-116 8.94,-45.63 17.11,-91.29 24.5,-137 36,0 72,0 108,0 -13.71,76.9 -27.38,153.9 -41,231 -4.22,21.32 -11.22,41.65 -21,61 -5.14,6.63 -9.64,13.63 -13.5,21 -6.1,7.44 -12.6,14.61 -19.5,21.5 -7.67,5.68 -15.01,11.68 -22,18 -6.45,2.72 -12.45,6.22 -18,10.5 -50.82,25.1 -103.82,30.77 -159,17 -44.81,-12.31 -73.98,-40.65 -87.5,-85 -1.44,-10.97 -2.61,-21.97 -3.5,-33 1.14,-12.34 2.31,-24.67 3.5,-37 13.02,-68.63 25.52,-137.29 37.5,-206 1.05,-6.3 1.72,-12.63 2,-19 z"
         id="path15" /></g><g
       id="g16"
       style="fill:#000000"><path
         style="opacity:0.997;fill:#000000"
         fill="#fefffe"
         d="m 2046.5,1161.5 c 31.33,0 62.67,0 94,0 1.42,4.12 3.76,7.79 7,11 2.55,5.26 5.21,10.43 8,15.5 4.77,8.1 9.93,15.93 15.5,23.5 8.5,15 17,30 25.5,45 6.36,8.05 11.69,16.72 16,26 15.72,25.55 31.22,51.22 46.5,77 11.71,-65.97 23.21,-131.97 34.5,-198 35.33,0 70.67,0 106,0 0.33,4.71 -0.01,9.38 -1,14 -22.24,120.88 -43.58,241.88 -64,363 -31.34,0.33 -62.67,0 -94,-1 -5.03,-6.06 -9.03,-12.72 -12,-20 -5.59,-7.1 -10.59,-14.6 -15,-22.5 -8.45,-14.39 -16.78,-28.89 -25,-43.5 -4.41,-5.81 -8.57,-11.81 -12.5,-18 -1.44,-2.55 -2.61,-5.21 -3.5,-8 -16.83,-27.67 -33.67,-55.33 -50.5,-83 -0.31,0.81 -0.81,1.47 -1.5,2 -11.18,64.66 -22.18,129.33 -33,194 -35.67,0 -71.33,0 -107,0 5.47,-36.56 11.8,-72.89 19,-109 0.43,-5.34 0.93,-10.67 1.5,-16 15.34,-83.86 30.5,-167.86 45.5,-252 z"
         id="path16"
         clip-path="url(#clipPath67)" /></g><g
       id="g17"
       style="fill:#000000"><path
         style="opacity:0.997;fill:#000000"
         fill="#fefffe"
         d="m 2922.5,1161.5 c 91,0 182,0 273,0 -4.36,30.13 -9.36,60.13 -15,90 -55.67,0 -111.33,0 -167,0 0.17,3.68 0,7.35 -0.5,11 -2.68,14.99 -5.85,29.82 -9.5,44.5 47.67,0.5 95.33,0.67 143,0.5 -5.44,30.32 -10.77,60.65 -16,91 -47.33,0 -94.67,0 -142,0 -2.83,17.38 -6.16,34.55 -10,51.5 56.67,0.5 113.33,0.67 170,0.5 -5.2,29.28 -10.54,58.61 -16,88 -92,0 -184,0 -276,0 22.31,-125.37 44.31,-251.03 66,-377 z"
         id="path17" /></g><g
       id="g18"
       style="fill:#000000"><path
         style="opacity:0.977;fill:#000000"
         fill="#fefffe"
         d="m 2381.5,1570.5 c 3.88,0.18 7.54,1.18 11,3 6.56,4.37 12.89,9.04 19,14 1.33,1.67 1.33,3.33 0,5 -2.41,2.74 -4.41,5.74 -6,9 -1.38,1.71 -3.04,3.05 -5,4 -6.58,-3.87 -13.08,-7.87 -19.5,-12 -7.04,2.77 -13.54,6.43 -19.5,11 -2.24,0.97 -4.58,1.31 -7,1 -0.73,-4.81 -2.07,-9.48 -4,-14 0.33,-1.33 0.67,-2.67 1,-4 9.61,-6.67 19.61,-12.34 30,-17 z"
         id="path18" /></g><g
       id="g19"
       style="fill:#000000"><path
         style="opacity:0.984;fill:#000000"
         fill="#fefffe"
         d="m 716.5,1615.5 c 23.655,-4.17 43.821,2.17 60.5,19 2.737,4.47 5.237,9.14 7.5,14 8.606,29.22 1.94,54.55 -20,76 -4.53,2.75 -8.864,5.75 -13,9 -15.861,9.05 -32.861,12.55 -51,10.5 -12.128,-2.82 -22.628,-8.65 -31.5,-17.5 -2.579,-3.49 -4.913,-7.15 -7,-11 -2.95,-8.82 -5.116,-17.82 -6.5,-27 1.487,-5.89 2.487,-11.89 3,-18 2.004,-4.51 3.504,-9.18 4.5,-14 5.716,-9.05 12.549,-17.22 20.5,-24.5 4.168,-2.25 8.168,-4.75 12,-7.5 7.206,-3.05 14.206,-6.05 21,-9 z m 10,26 c 24.204,3.04 34.371,16.7 30.5,41 -4.535,16.7 -15.035,27.7 -31.5,33 -8.187,1.53 -16.187,0.87 -24,-2 -1.543,-2.89 -3.876,-4.56 -7,-5 -9.242,-13.3 -10.242,-27.3 -3,-42 3.955,-5.62 8.288,-10.96 13,-16 7.313,-3.68 14.646,-6.68 22,-9 z"
         id="path19" /></g><g
       id="g20"
       style="fill:#000000"><path
         style="opacity:0.98;fill:#000000"
         fill="#fefffe"
         d="m 1143.5,1615.5 c 10.34,-0.17 20.67,0 31,0.5 3.84,1.77 7.84,3.27 12,4.5 18.25,9.82 27.25,25.15 27,46 -10.02,0.33 -20.02,0 -30,-1 -7.96,-21.48 -22.63,-27.98 -44,-19.5 -2.97,2.46 -6.3,4.3 -10,5.5 -7.83,7.85 -13.17,17.18 -16,28 -1.53,12.74 2.47,23.4 12,32 10.3,5.81 20.97,6.48 32,2 3.05,-2.52 6.38,-4.52 10,-6 4.48,-3.48 7.82,-7.81 10,-13 9.98,-1 19.98,-1.33 30,-1 -0.22,5.44 -1.88,10.44 -5,15 -8.46,12.46 -19.46,22.13 -33,29 -21.66,9.97 -42.99,9.3 -64,-2 -4.19,-5.11 -8.86,-9.77 -14,-14 -11.92,-22.56 -11.92,-45.23 0,-68 5.83,-6.36 11.16,-13.03 16,-20 11.37,-7.69 23.37,-13.69 36,-18 z"
         id="path20" /></g><g
       id="g21"
       style="fill:#000000"><path
         style="opacity:0.981;fill:#000000"
         fill="#fefffe"
         d="m 2185.5,1615.5 c 23.22,-4.03 43.22,1.97 60,18 6.48,10.03 9.48,21.03 9,33 -9.69,0.33 -19.36,0 -29,-1 -8.47,-21.83 -23.47,-28.16 -45,-19 -12.63,5.96 -20.96,15.63 -25,29 -3.82,18.35 2.51,31.69 19,40 8.19,1.53 16.19,0.87 24,-2 3.44,-2.44 7.1,-4.44 11,-6 3.58,-4.15 6.91,-8.49 10,-13 9.98,-1 19.98,-1.33 30,-1 -0.05,5.11 -1.55,9.78 -4.5,14 -5.62,6.79 -11.45,13.46 -17.5,20 -5.83,3.08 -11.5,6.41 -17,10 -21.3,9.91 -42.3,9.25 -63,-2 -3.7,-4.04 -7.7,-7.7 -12,-11 -18.18,-33.79 -13.51,-64.13 14,-91 11.33,-7.67 23.33,-13.67 36,-18 z"
         id="path21"
         clip-path="url(#clipPath69)" /></g><g
       id="g22"
       style="fill:#000000"><path
         style="opacity:0.978;fill:#000000"
         fill="#fefffe"
         d="m 2808.5,1615.5 c 10.69,-0.33 21.35,0 32,1 24.81,6.97 37.97,23.31 39.5,49 -10.42,0.99 -20.92,1.32 -31.5,1 -1.36,-10.75 -7.03,-18.08 -17,-22 -3.44,-0.69 -6.77,-1.69 -10,-3 -5.73,1.41 -11.4,3.08 -17,5 -3.96,2.33 -7.96,4.66 -12,7 -4.92,6.1 -8.92,12.76 -12,20 -2.37,12.14 -0.54,23.47 5.5,34 8.62,8.25 18.79,10.91 30.5,8 11.82,-3.23 20.49,-10.23 26,-21 10.65,-1 21.31,-1.33 32,-1 -0.8,4.61 -2.47,8.95 -5,13 -4.58,6.68 -9.58,13.01 -15,19 -4.57,1.92 -8.57,4.59 -12,8 -22.17,12.77 -44.84,14.11 -68,4 -20.32,-14.33 -28.99,-34 -26,-59 5.7,-25.36 20.03,-44.03 43,-56 5.97,-2.17 11.63,-4.5 17,-7 z"
         id="path22" /></g><g
       id="g23"
       style="fill:#000000"><path
         style="opacity:0.99;fill:#000000"
         fill="#fefffe"
         d="m 858.5,1617.5 c 28.333,0 56.667,0 85,0 -0.276,9.51 -1.609,18.84 -4,28 -18.333,0 -36.667,0 -55,0 -1.226,8.35 -2.559,16.69 -4,25 15.333,0 30.667,0 46,0 0.166,4.68 -10e-4,9.35 -0.5,14 -0.847,4.4 -2.013,8.73 -3.5,13 -15.986,1 -31.986,1.33 -48,1 -1.787,14.65 -3.453,29.32 -5,44 -10.667,0 -21.333,0 -32,0 7.766,-41.55 14.766,-83.21 21,-125 z"
         id="path23" /></g><g
       id="g24"
       style="fill:#000000"><path
         style="opacity:0.989;fill:#000000"
         fill="#fefffe"
         d="m 1003.5,1617.5 c 9.67,0 19.33,0 29,0 -5.61,42 -12.61,83.67 -21,125 -9.67,0 -19.333,0 -29,0 5.595,-41.9 12.595,-83.57 21,-125 z"
         id="path24" /></g><g
       id="g25"
       style="fill:#000000"><path
         style="opacity:0.987;fill:#000000"
         fill="#fefffe"
         d="m 1282.5,1617.5 c 10.33,0 20.67,0 31,0 -6.94,41.68 -13.94,83.35 -21,125 -9.67,0 -19.33,0 -29,0 -0.33,-5.04 0.01,-10.04 1,-15 6.61,-36.55 12.61,-73.22 18,-110 z"
         id="path25"
         clip-path="url(#clipPath58)" /></g><g
       id="g26"
       style="fill:#000000"><path
         style="opacity:0.989;fill:#000000"
         fill="#fefffe"
         d="m 1377.5,1617.5 c 9.36,-0.33 18.69,0 28,1 12.63,21.59 25.63,42.93 39,64 0.98,-0.48 1.81,-1.14 2.5,-2 3.71,-20.98 7.21,-41.98 10.5,-63 9.67,0 19.33,0 29,0 -0.72,10.52 -1.72,21.02 -3,31.5 -5.99,31.09 -11.32,62.25 -16,93.5 -9,0 -18,0 -27,0 0.26,-1.48 -0.07,-2.81 -1,-4 -6.74,-8.95 -12.4,-18.61 -17,-29 -5.59,-7.1 -10.59,-14.6 -15,-22.5 -2.88,-4.92 -5.38,-10.09 -7.5,-15.5 -4.29,23.28 -8.29,46.62 -12,70 -9.75,0.99 -19.58,1.32 -29.5,1 6.85,-41.59 13.18,-83.26 19,-125 z"
         id="path26"
         clip-path="url(#clipPath59)" /></g><g
       id="g27"
       style="fill:#000000"><path
         style="opacity:0.988;fill:#000000"
         fill="#fefffe"
         d="m 1590.5,1617.5 c 9.67,0 19.33,0 29,0 -0.32,3.4 0.01,6.73 1,10 9.58,38.25 18.25,76.58 26,115 -10.33,0 -20.67,0 -31,0 -2.12,-6.83 -3.46,-13.83 -4,-21 -15.68,-0.33 -31.35,0 -47,1 -3.66,6.33 -7.32,12.66 -11,19 -10.33,1.33 -20.67,1.33 -31,0 -0.43,-0.79 -0.76,-1.63 -1,-2.5 23.67,-40.18 46.67,-80.68 69,-121.5 z m 7,45 c 2.36,10.81 4.36,21.81 6,33 -8,0 -16,0 -24,0 5.38,-9.76 11.05,-19.42 17,-29 0.93,-1.19 1.26,-2.52 1,-4 z"
         id="path27"
         clip-path="url(#clipPath60)" /></g><g
       id="g28"
       style="fill:#000000"><path
         style="opacity:0.988;fill:#000000"
         fill="#fefffe"
         d="m 1807.5,1617.5 c 9,0 18,0 27,0 8.2,16.76 16.7,33.42 25.5,50 8.28,-9.49 16.78,-18.83 25.5,-28 5.56,-7.57 11.89,-14.57 19,-21 8.31,-1 16.64,-1.33 25,-1 -4.34,37.9 -10.34,75.56 -18,113 -0.99,3.95 -1.32,7.95 -1,12 -10.33,0 -20.67,0 -31,0 4.25,-22.06 7.92,-44.22 11,-66.5 -0.17,-1.5 -0.33,-3 -0.5,-4.5 -6.88,10.06 -14.71,19.39 -23.5,28 -2.79,3.11 -5.13,6.44 -7,10 -3.94,0.29 -7.77,-0.04 -11.5,-1 -6.64,-12.13 -12.97,-24.47 -19,-37 -4.11,22.87 -8.28,45.87 -12.5,69 -9.81,1.94 -19.81,2.61 -30,2 5.98,-41.74 12.98,-83.41 21,-125 z"
         id="path28"
         clip-path="url(#clipPath61)" /></g><g
       id="g29"
       style="fill:#000000"><path
         style="opacity:0.995;fill:#000000"
         fill="#fefffe"
         d="m 1995.5,1617.5 c 28,0 56,0 84,0 -0.58,9.38 -1.58,18.71 -3,28 -18.67,0 -37.33,0 -56,0 0.05,7.53 -0.95,14.86 -3,22 15.67,0 31.33,0 47,0 -1.66,8.95 -2.99,17.95 -4,27 -15.67,0 -31.33,0 -47,0 -1.45,6.64 -2.78,13.3 -4,20 18.33,0 36.67,0 55,0 -0.9,9.4 -2.24,18.73 -4,28 -28.67,0 -57.33,0 -86,0 6.46,-41.64 13.46,-83.31 21,-125 z"
         id="path29" /></g><g
       id="g30"
       style="fill:#000000"><path
         style="opacity:0.987;fill:#000000"
         fill="#fefffe"
         d="m 2362.5,1617.5 c 9.67,0 19.33,0 29,0 -0.32,3.4 0.01,6.73 1,10 8.28,38.4 16.95,76.74 26,115 -10.67,0 -21.33,0 -32,0 -1.74,-6.89 -3.07,-13.89 -4,-21 -15.35,-0.33 -30.68,0 -46,1 -4.52,5.85 -8.18,12.18 -11,19 -10.65,1 -21.31,1.33 -32,1 0.8,-4.61 2.47,-8.95 5,-13 20.83,-37.66 42.16,-75 64,-112 z m 6,45 c 3.34,10.68 5.67,21.68 7,33 -8,0 -16,0 -24,0 6.47,-10.6 12.13,-21.6 17,-33 z"
         id="path30" /></g><g
       id="g31"
       style="fill:#000000"><path
         style="opacity:0.99;fill:#000000"
         fill="#fefffe"
         d="m 2493.5,1617.5 c 9,0 18,0 27,0 -0.26,1.48 0.07,2.81 1,4 2.42,3.83 5.08,7.5 8,11 10.77,17.87 21.27,35.87 31.5,54 4.49,-22.96 8.66,-45.96 12.5,-69 9.67,0 19.33,0 29,0 -3.6,22.25 -6.76,44.58 -9.5,67 -3.92,18.5 -7.42,37.16 -10.5,56 -4.32,1.27 -8.82,1.94 -13.5,2 -4.17,-0.17 -8.33,-0.33 -12.5,-0.5 -9.97,-15.44 -19.31,-31.28 -28,-47.5 -5.18,-6.36 -9.35,-13.36 -12.5,-21 -4.96,22.85 -9.12,45.85 -12.5,69 -10.33,0 -20.67,0 -31,0 6.96,-41.75 13.96,-83.42 21,-125 z"
         id="path31" /></g><g
       id="g32"
       style="fill:#000000"><path
         style="opacity:0.987;fill:#000000"
         fill="#fefffe"
         d="m 2668.5,1617.5 c 9.67,0 19.33,0 29,0 0.33,4.71 -0.01,9.38 -1,14 -5.97,36.99 -11.97,73.99 -18,111 -10.33,0 -20.67,0 -31,0 6.47,-41.74 13.47,-83.41 21,-125 z"
         id="path32" /></g><g
       id="g33"
       style="fill:#000000"><path
         style="opacity:0.989;fill:#000000"
         fill="#fefffe"
         d="m 2985.5,1617.5 c 9.92,-0.32 19.75,0.01 29.5,1 6.02,28.43 12.52,56.77 19.5,85 2.5,12.99 4.83,25.99 7,39 -10.33,0 -20.67,0 -31,0 -1.33,-7 -2.67,-14 -4,-21 -15.67,0 -31.33,0 -47,0 0.16,1.37 -0.01,2.71 -0.5,4 -3.91,5.15 -6.74,10.82 -8.5,17 -11,0 -22,0 -33,0 -0.16,-1.7 0.01,-3.37 0.5,-5 16.31,-27.54 32.14,-55.54 47.5,-84 3.59,-4.84 6.92,-9.84 10,-15 3.04,-7.21 6.37,-14.21 10,-21 z m 7,47 c 0.65,0.59 1.32,1.26 2,2 1.22,9.87 3.22,19.54 6,29 -8.34,0.17 -16.67,0 -25,-0.5 6.06,-9.96 11.73,-20.12 17,-30.5 z"
         id="path33" /></g></g></svg>
